<svg id="Layer_1" data-name="Layer 1" xmlns="http://www.w3.org/2000/svg" viewBox="0 0 250 126.39"><defs><style>.cls-1{fill:#e58e26;}.cls-2{fill:none;stroke:#f2f2f2;stroke-miterlimit:10;stroke-width:4px;}</style></defs><title>logo</title><path class="cls-1" d="M45.35,55.7Q38.09,68.14,31,74.62T17.43,81.1a7.21,7.21,0,0,1-5.1-1.68,6.12,6.12,0,0,1-1.81-4.69A24.34,24.34,0,0,1,11.78,69q1.26-4.18,3.38-9.75.72-1.77,2-5,5.13-13,5.14-16.12a4.56,4.56,0,0,0-1.16-3.3,4.21,4.21,0,0,0-3.2-1.2q-4.08,0-7.3,4.78a18.72,18.72,0,0,0-3.22,10.7,9.21,9.21,0,0,0,.42,3A3.67,3.67,0,0,0,9.14,54a1.48,1.48,0,0,1-.87,1.28A4.6,4.6,0,0,1,6,55.7a5.19,5.19,0,0,1-4.34-2.23A9.42,9.42,0,0,1,0,47.66,21.12,21.12,0,0,1,5.54,33q5.55-6.12,12.85-6.13,5.57,0,8.64,3c2.06,2,3.09,4.83,3.09,8.46a29,29,0,0,1-1,6.84,79.54,79.54,0,0,1-3.06,9.32l-5,12.93c-.48,1.3-.78,2.22-.93,2.77a5.65,5.65,0,0,0-.21,1.38,2,2,0,0,0,.48,1.52,2.81,2.81,0,0,0,1.83.43,7.86,7.86,0,0,0,4-1.19,21.21,21.21,0,0,0,4.48-3.88,87,87,0,0,0,7.4-9.26,99.4,99.4,0,0,0,6.52-10.72,111.77,111.77,0,0,0,6.47-14.62c1.85-5.14,3.23-7.7,4.13-7.7a9.09,9.09,0,0,1,3.79.92c1.34.61,2,1.21,2,1.8a7.29,7.29,0,0,1-.46,1.92c-.1.28-.17.51-.22.67L52.83,58.32q-1.56,5.64-2.94,10t-2.84,8.49c.85.14,1.53.23,2,.28s1,.07,1.36.07.85,0,1.7-.07l.93-.07-1.32,4.78c-.33,0-.82.06-1.48.09S49.19,82,49,82a28.56,28.56,0,0,1-3.26-.31l-.67-.11q-4.16,8.82-8.61,13.23t-9.32,4.41a5.73,5.73,0,0,1-3.67-1.06,3.58,3.58,0,0,1-1.33-2.94c0-2.22,1.39-4.69,4.15-7.42A33.37,33.37,0,0,1,37,80.89q2.65-6.06,4.76-12.36A128.16,128.16,0,0,0,45.35,55.7Z" transform="translate(0 -1.72)"/><path class="cls-1" d="M52.26,81.81,53.64,77a17.2,17.2,0,0,0,7.87-2.3c0-.17,0-.34-.06-.52s0-.44,0-.79q0-3.51,3.72-14.32c.47-1.35.82-2.38,1.06-3.12s.54-1.56.92-2.69q1.85-5.62,3.65-5.63a13,13,0,0,1,4.73.9c1.55.6,2.32,1.25,2.32,1.93a24.69,24.69,0,0,1-1.68,3.93c-1.12,2.37-2.13,4.63-3,6.81q-2.2,5.34-3.1,8.15a15.16,15.16,0,0,0-.9,4.11,2.32,2.32,0,0,0,.54,1.66,2.11,2.11,0,0,0,1.58.57q2.41,0,5.53-3.92A45.64,45.64,0,0,0,82.7,61.3a67.94,67.94,0,0,0,2.94-8.43q1.41-5,3.89-5a10.11,10.11,0,0,1,4.11.78c1.18.52,1.78,1.13,1.78,1.84a27.12,27.12,0,0,1-1.63,4q-1.64,3.6-2.87,6.8a74.62,74.62,0,0,0-2.57,7.53,19.69,19.69,0,0,0-.84,4.94,2.88,2.88,0,0,0,.94,2.46,7.2,7.2,0,0,0,3.67.8l-1.35,4.78H90.1q-5.07,0-7-1.18a4.48,4.48,0,0,1-2-4.17,14.25,14.25,0,0,1,.39-3c.26-1.18.69-2.73,1.28-4.65q-5.25,7.8-8.35,10.39a10,10,0,0,1-6.5,2.58A8,8,0,0,1,64.17,81,4.43,4.43,0,0,1,62,78.69a16.24,16.24,0,0,1-4.36,2.15A24.51,24.51,0,0,1,52.26,81.81Z" transform="translate(0 -1.72)"/><path class="cls-1" d="M161.71,69q-3.79,6.72-7.51,9.85a12.19,12.19,0,0,1-8,3.11,10.16,10.16,0,0,1-3.52-.56,5.25,5.25,0,0,1-2.36-1.67,15.66,15.66,0,0,1-4,1.47,28.09,28.09,0,0,1-5.31.62L132.41,77a18.3,18.3,0,0,0,3.49-.5,11.26,11.26,0,0,0,2.78-1.09,14.83,14.83,0,0,1-.22-1.55c0-.53-.07-1.1-.07-1.71a18.9,18.9,0,0,1,1.28-6.44,30.81,30.81,0,0,1,3.58-6.85,27.31,27.31,0,0,1,7.85-7.78A16.68,16.68,0,0,1,160,48.44a10.52,10.52,0,0,1,4,.67,9.59,9.59,0,0,1,3.16,2.16l.49-1.59a4.31,4.31,0,0,1,.93-1.85,2,2,0,0,1,1.34-.39,10.14,10.14,0,0,1,4.27.84c1.22.55,1.83,1.21,1.83,2a18.62,18.62,0,0,1-1.53,3.33q-1.52,3-2.69,5.67a91.52,91.52,0,0,0-3.53,9.16,21.49,21.49,0,0,0-1.18,5.87,2.11,2.11,0,0,0,.88,2,11,11,0,0,0,4,.84l-1.38,4.74H170q-5.57,0-7.83-1.17a4.1,4.1,0,0,1-2.27-4,13.92,13.92,0,0,1,.43-3.05A47.12,47.12,0,0,1,161.71,69Zm3.61-13.43a7.45,7.45,0,0,0-1.89-1.1,5.27,5.27,0,0,0-1.9-.35,9,9,0,0,0-4.8,1.8,23.13,23.13,0,0,0-5.19,4.93,25.84,25.84,0,0,0-3.6,6.07,15.15,15.15,0,0,0-1.33,5.62,4.35,4.35,0,0,0,.61,2.57,2.12,2.12,0,0,0,1.84.83q3.47,0,7.62-5.17T165.32,55.56Z" transform="translate(0 -1.72)"/><path class="cls-1" d="M170.6,81.81,172,77a21,21,0,0,0,3.36-.43,13.81,13.81,0,0,0,2.77-.88c-.24-.9-.4-1.65-.5-2.25a11.24,11.24,0,0,1-.14-1.65,30.78,30.78,0,0,1,1.57-8.29,90.28,90.28,0,0,1,4.38-11.37c.95-2.13,1.68-3.39,2.2-3.78a4.88,4.88,0,0,1,2.8-.58,8.77,8.77,0,0,1,3.66.67c1,.45,1.47,1,1.47,1.7A12.53,12.53,0,0,1,192,53.54c-1.06,1.86-2,3.65-2.73,5.35a54.84,54.84,0,0,0-2.85,7.62,22.41,22.41,0,0,0-1,5.88,3.78,3.78,0,0,0,.5,2.21,1.82,1.82,0,0,0,1.59.69A6.1,6.1,0,0,0,190.76,74a24.53,24.53,0,0,0,4.15-3.75,44.2,44.2,0,0,1,1.36-7.44,60.65,60.65,0,0,1,2.78-8,3.7,3.7,0,0,1,1.29-1.82,4.46,4.46,0,0,1,2.32-.48,9.37,9.37,0,0,1,3.62.6c.94.4,1.42.92,1.42,1.56a24.33,24.33,0,0,1-1.07,2.61c-.71,1.61-1.34,3.24-1.91,4.87q-1.35,3.86-1.95,6.3a17.58,17.58,0,0,0-.6,4,4.88,4.88,0,0,0,.53,2.6,1.93,1.93,0,0,0,1.74.8c1.79,0,3.81-1.58,6-4.73a32,32,0,0,0,4.9-11.36A4.35,4.35,0,0,1,213,57.93a5.86,5.86,0,0,1-.76-3.19,6.77,6.77,0,0,1,1.52-4.6,5,5,0,0,1,4-1.77,4.52,4.52,0,0,1,3.61,1.47A6.21,6.21,0,0,1,222.65,54a25.84,25.84,0,0,1-1.58,7.48,51.43,51.43,0,0,1-4,9.14,28.62,28.62,0,0,1-6.77,8.54A12,12,0,0,1,202.74,82a8.72,8.72,0,0,1-5.28-1.45A6.36,6.36,0,0,1,195,76.25a27,27,0,0,1-5.34,4.41A9,9,0,0,1,185.13,82a6.7,6.7,0,0,1-2.63-.51,8.2,8.2,0,0,1-2.4-1.65,22.4,22.4,0,0,1-4.4,1.42A29.5,29.5,0,0,1,170.6,81.81Z" transform="translate(0 -1.72)"/><path class="cls-1" d="M232.29,78.27a37.31,37.31,0,0,1-6.9,2.51,33.06,33.06,0,0,1-7,1L219.85,77a28.66,28.66,0,0,0,4.52-.67,23.74,23.74,0,0,0,4-1.35,12,12,0,0,1-2-4,19.93,19.93,0,0,1-.63-5.31,17.59,17.59,0,0,1,4.83-12.33A15.05,15.05,0,0,1,242,48.08a7.74,7.74,0,0,1,5.83,2.22,8.3,8.3,0,0,1,2.14,6q0,4.19-3.06,9.23a32.27,32.27,0,0,1-8.17,8.91,8.84,8.84,0,0,0,3.24,2,13.76,13.76,0,0,0,4.31.59h.49l-1.38,4.78h-1a25.27,25.27,0,0,1-7-.87A14.18,14.18,0,0,1,232.29,78.27Zm3.64-7.48a20.14,20.14,0,0,0,6.2-6.5q2.52-4.1,2.52-7.14a3.31,3.31,0,0,0-.74-2.32,2.83,2.83,0,0,0-2.16-.8c-2,0-3.7,1.16-5.21,3.46a14.22,14.22,0,0,0-2.27,8,10.21,10.21,0,0,0,.39,3A6.27,6.27,0,0,0,235.93,70.79Z" transform="translate(0 -1.72)"/><path class="cls-2" d="M129.42,11.83C89.61,38.42,111.88,122.55,94,126c-14.29,2.75-47.94-47.24-33.7-73.94C85,5.85,239.39,55.07,242.89,40.71,245.44,30.29,168.61-14.34,129.42,11.83Z" transform="translate(0 -1.72)"/><path class="cls-1" d="M121.49,69q-3.8,6.72-7.51,9.85A12.19,12.19,0,0,1,106,82a10.21,10.21,0,0,1-3.53-.56,5.22,5.22,0,0,1-2.35-1.67,15.66,15.66,0,0,1-4,1.47,28.1,28.1,0,0,1-5.32.62L92.19,77a18.3,18.3,0,0,0,3.49-.5,11,11,0,0,0,2.78-1.09c-.09-.5-.16-1-.21-1.55s-.07-1.1-.07-1.71a18.66,18.66,0,0,1,1.28-6.44A31.18,31.18,0,0,1,103,58.89a28.15,28.15,0,0,1,7.83-7.78,16.44,16.44,0,0,1,8.86-2.67,10.49,10.49,0,0,1,4,.71,10.78,10.78,0,0,1,3.37,2.26,5.67,5.67,0,0,1,1.2-3c.5-.43,1.69-.65,3.58-.65a8.89,8.89,0,0,1,3.35.44,1.56,1.56,0,0,1,.94,1.51,4.71,4.71,0,0,1-.16,1.1q-.16.6-.69,2L125,78a15.45,15.45,0,0,1,3.63-.59c1.68-.13,2.91-.25,3.66-.37L131,81.81l-.46.07a35.35,35.35,0,0,0-7.3,1.24q-3.83,9.28-6.8,12.88t-6.49,3.6a4.94,4.94,0,0,1-3.49-1.14,4.18,4.18,0,0,1-1.22-3.22,8.23,8.23,0,0,1,2.32-5.62,24.71,24.71,0,0,1,7.32-5q1.72-3.58,3.38-7.44T121.49,69Zm3.62-13.43a7.33,7.33,0,0,0-1.9-1.1,5.22,5.22,0,0,0-1.89-.35,9,9,0,0,0-4.81,1.8,23.56,23.56,0,0,0-5.19,4.93,25.46,25.46,0,0,0-3.59,6.07,15,15,0,0,0-1.33,5.62,4.43,4.43,0,0,0,.6,2.57,2.14,2.14,0,0,0,1.84.83q3.48,0,7.62-5.17T125.11,55.56Z" transform="translate(0 -1.72)"/></svg>