<svg id="Layer_1" data-name="Layer 1" xmlns="http://www.w3.org/2000/svg" viewBox="0 0 100 85.89"><defs><style>.cls-1{fill:#b3b3b3;}.cls-2{fill:#ccc;}.cls-3{fill:#fff;}.cls-4{fill:#54a0ff;}.cls-5{fill:#4d4d4d;}.cls-6{fill:#999893;}.cls-7{fill:#71818b;}.cls-8{fill:#3c6382;}.cls-9{fill:#1a1a1a;}.cls-10{fill:#5d7a7f;}.cls-11{fill:#dae7e8;}.cls-12{fill:#688689;}.cls-13{fill:#153e49;}.cls-14{fill:#0c2630;}.cls-15{fill:#8cad81;}</style></defs><title>kontrak</title><path class="cls-1" d="M66.44,92.89H4.11l-.05-.06a8.74,8.74,0,0,1,0-11.19l.05-.06H7.57v9.69H64.4a7.14,7.14,0,0,0,7.13-7.14V68.65l.4-.45h0l1.64-1.85v19.4a7.13,7.13,0,0,1-7.13,7.14m5.09-34.75V18.46s-.12-6.78,1.72-9.84h5.58l0,.06a8.74,8.74,0,0,1,0,11.19l0,.06H73.57V54.74l-2,3.4" transform="translate(0 -7)"/><path class="cls-2" d="M14.55,18.31H76.79l0-.06a8.74,8.74,0,0,0,0-11.19l0-.06H14.55l.31.33a7.83,7.83,0,0,1-.25,10.92l-.06.06Z" transform="translate(0 -7)"/><path class="cls-3" d="M64.4,91.27H7.57V13.71a6.56,6.56,0,0,1,6.55-6.56h55.6s5.77-.34,5.65,0c-4,.08-3.84,11.31-3.84,11.31V84.13a7.14,7.14,0,0,1-7.13,7.14" transform="translate(0 -7)"/><path class="cls-2" d="M64.32,91.27H2.07l0-.06A8.72,8.72,0,0,1,2,80l0-.06H64.32l-.31.33c-2.89,3.11-3.38,8.41.31,11Z" transform="translate(0 -7)"/><polygon class="cls-4" points="60.06 15.95 21.39 15.95 21.39 12.7 60.06 12.7 60.06 15.95 60.06 15.95"/><polygon class="cls-5" points="65.44 69.05 48.15 69.05 48.15 67.98 65.44 67.98 65.44 69.05 65.44 69.05"/><polygon class="cls-4" points="65.44 23.38 16.01 23.38 16.01 22.06 65.44 22.06 65.44 23.38 65.44 23.38"/><polygon class="cls-4" points="65.44 29.87 16.01 29.87 16.01 28.55 65.44 28.55 65.44 29.87 65.44 29.87"/><polygon class="cls-4" points="65.44 36.36 16.01 36.36 16.01 35.04 65.44 35.04 65.44 36.36 65.44 36.36"/><polygon class="cls-4" points="65.44 42.85 16.01 42.85 16.01 41.53 65.44 41.53 65.44 42.85 65.44 42.85"/><polygon class="cls-4" points="65.44 49.34 16.01 49.34 16.01 48.02 65.44 48.02 65.44 49.34 65.44 49.34"/><polygon class="cls-4" points="65.44 62.32 16.01 62.32 16.01 60.99 65.44 60.99 65.44 62.32 65.44 62.32"/><polygon class="cls-4" points="65.44 55.83 16.01 55.83 16.01 54.51 65.44 54.51 65.44 55.83 65.44 55.83"/><polyline class="cls-6" points="71.53 61.65 71.53 59.36 73.57 57 73.57 59.34 71.93 61.2 71.93 61.2 71.53 61.65"/><polyline class="cls-7" points="66.05 67.79 65.58 67.5 66.43 63.86 67.37 63.27 69.04 59.55 70.57 60.47 71.53 59.36 71.53 61.65 69.14 64.36 68.98 65.38 66.05 67.79"/><polyline class="cls-8" points="70.57 60.47 67.71 58.76 69.66 54.26 88.27 23.21 92.42 25.69 73.82 56.72 70.57 60.47"/><path class="cls-8" d="M90.61,36.44,85.7,33.49a.21.21,0,0,1-.07-.27l8.92-14.87a.18.18,0,0,1,.26-.06l4.92,2.94a.2.2,0,0,1,.06.27L90.88,36.37a.21.21,0,0,1-.27.07" transform="translate(0 -7)"/><path class="cls-9" d="M99.35,23.21l-.15-.1-5.85-3.5a.15.15,0,0,0-.21.05l-.38.62a.16.16,0,0,0,.06.22l5.71,3.42a.16.16,0,0,1,.06.22l-4.94,8.23a.16.16,0,0,0,0,.21l.6.36a.16.16,0,0,0,.21,0L100,23.76a.15.15,0,0,0-.06-.21l-.57-.34Z" transform="translate(0 -7)"/><polygon class="cls-10" points="67.82 63.66 66.04 62.59 69.66 54.26 73.8 56.74 67.82 63.66 67.82 63.66"/><polygon class="cls-11" points="67.82 63.66 66.04 62.59 65.11 63.2 64.29 66.84 64.76 67.13 67.67 64.69 67.82 63.66 67.82 63.66"/><path class="cls-12" d="M73.88,64.19l-4.75-2.84A.28.28,0,0,1,69,61h0a.25.25,0,0,1,.36-.09l4.75,2.84a.27.27,0,0,1,.09.36h0a.25.25,0,0,1-.36.09Z" transform="translate(0 -7)"/><path class="cls-12" d="M73.49,64.83,68.75,62a.25.25,0,0,1-.09-.36h0a.26.26,0,0,1,.36-.09l4.75,2.84a.26.26,0,0,1,.09.37h0a.26.26,0,0,1-.37.09Z" transform="translate(0 -7)"/><path class="cls-13" d="M66.23,72a.4.4,0,0,1-.54.13.39.39,0,0,1-.13-.53.38.38,0,0,1,.53-.14.39.39,0,0,1,.14.54Z" transform="translate(0 -7)"/><polygon class="cls-13" points="64.64 67.05 64.47 66.95 65.72 64.88 65.88 64.98 64.64 67.05 64.64 67.05"/><polyline class="cls-14" points="88.49 28.16 86.15 26.76 86.15 26.76 88.49 28.16"/><polygon class="cls-15" points="26.85 15.95 21.39 15.95 21.39 12.7 26.85 12.7 26.85 15.95 26.85 15.95"/></svg>