<svg id="Layer_1" data-name="Layer 1" xmlns="http://www.w3.org/2000/svg" viewBox="0 0 100 54.25"><defs><style>.cls-1{fill:#eae4ce;}.cls-2{fill:#54a0ff;}.cls-3{fill:#e5e5e5;}.cls-4{fill:#d2cdb9;}.cls-5{fill:#5486ff;}</style></defs><title>money</title><path class="cls-1" d="M65.35,69.84c-10.89,8.64-21.79,4.32-32.68,0S10.89,61.2,0,69.84Q2.42,52.46,4.84,35.07c9.28-7.36,18.56-3.68,27.83,0s18.56,7.36,27.84,0q2.41,17.38,4.84,34.77" transform="translate(0 -20.57)"/><path class="cls-2" d="M54.8,68.84c-6.37,1.12-12.74-.91-19.11-3.36,3.07-.65,5-4.65,4.83-10.12s-2.34-10.67-5.07-13.6c5.69,2.19,11.38,4,17.07,3,.19,2.09,1.95,3.57,3.94,2.78L58.29,64c-2.12.85-3.69,2.78-3.49,4.88M10.63,59.72a2.4,2.4,0,0,0-3.5-2.57Q8,49.19,9,41.21a6.09,6.09,0,0,0,3.93-4.64c5.69-1,11.38.84,17.07,3-2.73.81-4.86,4.71-5.07,10s1.77,10.53,4.84,13.56c-6.37-2.46-12.74-4.5-19.11-3.41m-4.27-24L2.31,66.53C12.43,60,22.55,64,32.67,68s20.3,8,30.45,1.42q-2-15.63-4.06-31.25C50.27,43.93,41.47,40.44,32.67,37S15.13,30,6.36,35.67" transform="translate(0 -20.57)"/><path class="cls-3" d="M48.74,39.31c-4.4,0-8.81-1.43-13.21-3.12h0c4.41,1.69,8.81,3.12,13.21,3.12a18.37,18.37,0,0,0,11.77-4.24,18.29,18.29,0,0,1-11.77,4.24" transform="translate(0 -20.57)"/><path class="cls-4" d="M64.12,61.05c-.73-.29-1.47-.57-2.2-.84q-1.43-11-2.86-22a18,18,0,0,1-10.17,3.06c-4.53,0-9.07-1.51-13.61-3.27l.25-1.78c4.4,1.69,8.81,3.12,13.21,3.12a18.29,18.29,0,0,0,11.77-4.24h0q1.8,13,3.61,26M40.32,59a18.31,18.31,0,0,0,.2-3.62c-.21-5.42-2.34-10.67-5.07-13.6C40,43.52,44.61,45,49.19,45a18.71,18.71,0,0,0,3.33-.28,3,3,0,0,0,2.86,3,2.87,2.87,0,0,0,1.08-.21q.61,5.61,1.25,11.23a31.35,31.35,0,0,0-9.24-1.61A18.52,18.52,0,0,0,40.32,59" transform="translate(0 -20.57)"/><path class="cls-5" d="M31.48,65.32,35.28,38c4.54,1.76,9.08,3.27,13.61,3.27a18,18,0,0,0,10.17-3.06q1.44,11,2.86,22c-1.41-.53-2.82-1-4.21-1.45q-.63-5.62-1.25-11.23a2.87,2.87,0,0,1-1.08.21,3,3,0,0,1-2.86-3,18.71,18.71,0,0,1-3.33.28c-4.58,0-9.16-1.51-13.74-3.27,2.73,2.93,4.86,8.18,5.07,13.6a18.31,18.31,0,0,1-.2,3.62,21.45,21.45,0,0,0-4.18,2.64l-4.66,3.7" transform="translate(0 -20.57)"/><path class="cls-1" d="M100,59.76C78.22,77,56.44,42.48,34.66,59.76Q37.08,42.36,39.5,25C58.05,10.26,76.61,39.7,95.16,25Q97.57,42.36,100,59.76Z" transform="translate(0 -20.57)"/><path class="cls-2" d="M89.45,56.76c-6.37,1.12-12.74-.91-19.1-3.37,3.06-.65,5-4.65,4.83-10.12s-2.34-10.66-5.07-13.6c5.69,2.19,11.37,4,17.06,3,.19,2.08,2,3.56,3.94,2.77Q92,43.66,93,51.87c-2.13.85-3.69,2.78-3.5,4.89ZM45.29,47.64a2.4,2.4,0,0,0-3.5-2.57l1.83-15.95a6.09,6.09,0,0,0,3.94-4.64c5.68-1,11.37.84,17.06,3-2.73.8-4.86,4.7-5.06,10S61.32,48,64.39,51.05c-6.37-2.46-12.74-4.51-19.1-3.41ZM41,23.58,37,54.45C57.23,41.32,77.5,70.58,97.78,57.34q-2-15.62-4.06-31.24C76.15,37.57,58.58,12.21,41,23.58Z" transform="translate(0 -20.57)"/></svg>