<svg id="Layer_1" data-name="Layer 1" xmlns="http://www.w3.org/2000/svg" viewBox="0 0 100 89.51"><defs><style>.cls-1{fill:#54a0ff;}.cls-2{fill:#fff;}</style></defs><title>users</title><path class="cls-1" d="M65.73,5a15.8,15.8,0,0,1,11.83,5.48,19.48,19.48,0,0,1,4.82,13,19.49,19.49,0,0,1-4.82,13,15.51,15.51,0,0,1-23.66,0,19.49,19.49,0,0,1-4.82-13,19.48,19.48,0,0,1,4.82-13A15.8,15.8,0,0,1,65.73,5Z" transform="translate(0 -5)"/><path class="cls-2" d="M98.38,94.51H31.46l.07-1.63C32.49,70,41,54.91,51.61,48A26.4,26.4,0,0,1,66,43.52a25.65,25.65,0,0,1,14.32,4.37c10.44,6.83,18.69,21.75,19.66,45l.07,1.63Z" transform="translate(0 -5)"/><path class="cls-1" d="M29.2,19.39a13.93,13.93,0,0,1,10.14,4.42,15.49,15.49,0,0,1,0,21.15,13.84,13.84,0,0,1-20.28,0,15.52,15.52,0,0,1,0-21.15A13.94,13.94,0,0,1,29.2,19.39Z" transform="translate(0 -5)"/><path class="cls-2" d="M29.9,94.51H0l.07-1.63C.69,78,5.05,67,11.12,60.05a27.44,27.44,0,0,1,9.06-7A21.67,21.67,0,0,1,30.36,51,22.15,22.15,0,0,1,42,54.9a48,48,0,0,0-5.43,8.87c-4.27,9-6.14,19.16-6.55,29l-.07,1.69Z" transform="translate(0 -5)"/></svg>