<svg id="Layer_1" data-name="Layer 1" xmlns="http://www.w3.org/2000/svg" viewBox="0 0 100 100"><defs><style>.cls-1{fill:#2d3436;}</style></defs><title>pekerja-lepas</title><rect class="cls-1" width="100" height="4"/><rect class="cls-1" x="-48" y="48" width="100" height="4" transform="translate(52 48) rotate(90)"/><rect class="cls-1" x="48" y="48" width="100" height="4" transform="translate(148 -48) rotate(90)"/><rect class="cls-1" y="96" width="100" height="4"/><path class="cls-1" d="M69.3,12.78c-.13-3.85-8.56-7-19-7s-19,3.16-19,7a3.21,3.21,0,0,0,.1.74C25.08,15.05,21,17.09,21.08,19.26c.1,3.9,13.27,6.74,29.42,6.36s29.19-3.85,29.09-7.75c0-2.13-4-4-10.29-5.09Z" transform="translate(0 0)"/><path class="cls-1" d="M83.46,62.32C81.13,47.65,65,48.47,65,48.47L50.34,68.11,35.67,48.47s-16.13-.82-18.46,13.85C16,69.9,17.21,93,17.21,93H83.46s1.21-23.1,0-30.68Z" transform="translate(0 0)"/><path class="cls-1" d="M50.34,14.52s-23.54,1-16.17,23.11c1.46,4.4,4.88,11.91,16.17,13.11C61.62,49.54,65,42,66.51,37.63c7.36-22.1-16.17-23.11-16.17-23.11Z" transform="translate(0 0)"/></svg>