<svg id="Layer_1" data-name="Layer 1" xmlns="http://www.w3.org/2000/svg" viewBox="0 0 100 100"><defs><style>.cls-1{fill:#2d3436;}</style></defs><title>pemberi-kerja</title><path class="cls-1" d="M79.1,53.75A10.75,10.75,0,0,0,68.35,43H54.29l-3.17,3.67L55.74,78,49.68,85l-6.51-6.91,5.35-31.24L45.06,43H31.16A10.75,10.75,0,0,0,20.41,53.75S16.26,79.62,22.2,85.56c10.38,10.37,45.88,11.41,55.1,0,5.28-6.53,1.8-31.81,1.8-31.81ZM49.75,39c13.83-.41,13.63-8.85,14.08-13.18C66.05,4.13,49.75,5.73,49.75,5.73s-16.3-1.6-14.07,20.06c.44,4.33.25,12.77,14.07,13.18Z" transform="translate(0 0)"/><rect class="cls-1" width="100" height="4"/><rect class="cls-1" x="-48" y="48" width="100" height="4" transform="translate(52 48) rotate(90)"/><rect class="cls-1" x="48" y="48" width="100" height="4" transform="translate(148 -48) rotate(90)"/><rect class="cls-1" y="96" width="100" height="4"/></svg>